<svg xmlns="http://www.w3.org/2000/svg" xmlns:xlink="http://www.w3.org/1999/xlink" width="12.377" height="15.212" viewBox="0 0 12.377 15.212">
  <defs>
    <clipPath id="clip-path">
      <rect id="Rectangle_1691" data-name="Rectangle 1691" width="12.377" height="15.212" fill="none"/>
    </clipPath>
  </defs>
  <g id="Group_1310" data-name="Group 1310" clip-path="url(#clip-path)">
    <path id="Path_5265" data-name="Path 5265" d="M10.329,8.087a3.459,3.459,0,0,1,1.644-2.9,3.549,3.549,0,0,0-2.787-1.5c-1.174-.121-2.31.7-2.907.7s-1.53-.692-2.526-.673A3.7,3.7,0,0,0,.63,5.617c-1.352,2.342-.343,5.776.952,7.668.647.927,1.4,1.961,2.393,1.923s1.333-.616,2.5-.616,1.5.616,2.507.6,1.695-.933,2.323-1.866a7.642,7.642,0,0,0,1.06-2.158,3.332,3.332,0,0,1-2.038-3.072ZM8.418,2.437A3.394,3.394,0,0,0,9.2,0,3.434,3.434,0,0,0,6.959,1.162a3.126,3.126,0,0,0-.8,2.349,2.847,2.847,0,0,0,2.26-1.066" transform="translate(0.011)" fill="#575757"/>
  </g>
</svg>
