<svg id="arrow-right" xmlns="http://www.w3.org/2000/svg" width="24" height="24" viewBox="0 0 24 24">
  <g id="arrow-right-2" data-name="arrow-right" transform="translate(-620 -188)">
    <path id="Union_23" data-name="Union 23" d="M16854.146,21333.076a.757.757,0,0,1,0-1.061l4.791-4.791h-15.187a.75.75,0,0,1,0-1.5h15.188l-4.791-4.791a.752.752,0,0,1,1.066-1.061l6.064,6.072a.745.745,0,0,1,0,1.059l-6.064,6.072a.759.759,0,0,1-1.066,0Z" transform="translate(-16220.25 -21126.475)" fill="#4e5d78"/>
    <path id="Vector" d="M0,0H24V24H0Z" transform="translate(644 212) rotate(180)" fill="none" opacity="0"/>
  </g>
</svg>
