<svg id="Component_57_1" data-name="Component 57 – 1" xmlns="http://www.w3.org/2000/svg" width="24" height="24" viewBox="0 0 24 24">
  <rect id="Rectangle_3309" data-name="Rectangle 3309" width="24" height="24" fill="none"/>
  <path id="Union_15" data-name="Union 15" d="M4.622-.75A.743.743,0,0,1,4.88-.7a.745.745,0,0,1,.3.2L9.768,3.944A.75.75,0,1,1,8.724,5.021l-4.1-3.975L.522,5.021A.75.75,0,0,1-.539,5,.748.748,0,0,1-.75,4.482a.748.748,0,0,1,.228-.538L4.063-.5A.75.75,0,0,1,4.622-.75Z" transform="translate(14.363 7.117) rotate(90)" fill="#4e5d78"/>
</svg>
