<svg id="binance-coin-_bnb_" data-name="binance-coin-(bnb)" xmlns="http://www.w3.org/2000/svg" width="24" height="24" viewBox="0 0 24 24">
  <g id="binance-coin-_bnb_2" data-name="binance-coin-(bnb)">
    <path id="BG_202" data-name="BG 202" d="M0,0H24V24H0Z" fill="none"/>
    <path id="Vector" d="M5.44.142.15,5.432a.5.5,0,0,0,0,.71l1.29,1.29a.5.5,0,0,0,.71,0l3.29-3.29a.5.5,0,0,1,.71,0l3.29,3.29a.5.5,0,0,0,.71,0l1.29-1.29a.5.5,0,0,0,0-.71L6.15.142A.513.513,0,0,0,5.44.142Z" transform="translate(6.21 2.207)" fill="#f3ba2f"/>
    <path id="Vector-2" data-name="Vector" d="M5.44,7.44.15,2.15a.5.5,0,0,1,0-.71L1.44.15a.5.5,0,0,1,.71,0L5.44,3.44a.5.5,0,0,0,.71,0L9.44.15a.5.5,0,0,1,.71,0l1.29,1.29a.5.5,0,0,1,0,.71L6.15,7.44A.513.513,0,0,1,5.44,7.44Z" transform="translate(6.21 14.21)" fill="#f3ba2f"/>
    <path id="Vector-3" data-name="Vector" d="M2.4.142l1.54,1.54a.5.5,0,0,1,0,.71L2.4,3.932a.5.5,0,0,1-.71,0L.15,2.392a.5.5,0,0,1,0-.71L1.69.142A.513.513,0,0,1,2.4.142Z" transform="translate(17.7 9.958)" fill="#f3ba2f"/>
    <path id="Vector-4" data-name="Vector" d="M2.4.142l1.54,1.54a.5.5,0,0,1,0,.71L2.4,3.932a.5.5,0,0,1-.71,0L.15,2.392a.5.5,0,0,1,0-.71L1.69.142A.513.513,0,0,1,2.4.142Z" transform="translate(2.2 9.958)" fill="#f3ba2f"/>
    <path id="Vector-5" data-name="Vector" d="M2.63.15,4.4,1.92a.5.5,0,0,1,0,.71L2.63,4.4a.5.5,0,0,1-.71,0L.15,2.63a.5.5,0,0,1,0-.71L1.92.15A.5.5,0,0,1,2.63.15Z" transform="translate(9.72 9.73)" fill="#f3ba2f"/>
    <path id="Vector-6" data-name="Vector" d="M0,0H24V24H0Z" fill="none" opacity="0"/>
  </g>
</svg>
