<svg id="camera" xmlns="http://www.w3.org/2000/svg" width="24" height="24" viewBox="0 0 24 24">
  <path id="Union_46" data-name="Union 46" d="M16113.267,20452.949a4.63,4.63,0,0,1-3.531-1.34,4.927,4.927,0,0,1-1.206-3.121l-.519-8.254a4.444,4.444,0,0,1,1.206-3.363,4.535,4.535,0,0,1,3.29-1.426.9.9,0,0,0,.786-.479l.713-1.441c0-.006,0-.006,0-.006a4.068,4.068,0,0,1,3.357-2.074h2.289a4.073,4.073,0,0,1,3.353,2.074v.006l.718,1.441a.889.889,0,0,0,.78.479,4.539,4.539,0,0,1,3.291,1.426,4.444,4.444,0,0,1,1.206,3.363l-.519,8.258a4.929,4.929,0,0,1-1.212,3.117,4.618,4.618,0,0,1-3.526,1.34Zm2.084-18.758-.719,1.449s0,.01-.01.01a2.372,2.372,0,0,1-2.115,1.3,3,3,0,0,0-3,3.188l.524,8.264a2.889,2.889,0,0,0,3.238,3.049h10.481a2.9,2.9,0,0,0,3.239-3.049l.523-8.26a3,3,0,0,0-3-3.191,2.377,2.377,0,0,1-2.114-1.3s0-.006,0-.01l-.719-1.449a2.567,2.567,0,0,0-2.013-1.246h-2.289A2.56,2.56,0,0,0,16115.351,20434.191Zm-.842,10.754a4,4,0,1,1,4,4A4,4,0,0,1,16114.509,20444.945Zm1.5,0a2.5,2.5,0,1,0,2.5-2.5A2.5,2.5,0,0,0,16116.008,20444.945Zm1-6a.749.749,0,1,1,0-1.5h3a.749.749,0,1,1,0,1.5Z" transform="translate(-16106.508 -20430.197)" fill="#4e5d78"/>
  <path id="Vector" d="M0,0H24V24H0Z" fill="none" opacity="0"/>
</svg>
