<svg id="message" xmlns="http://www.w3.org/2000/svg" width="24" height="24" viewBox="0 0 24 24">
  <path id="Union_61" data-name="Union 61" d="M16228.952,20308.045l-1.5-2a.509.509,0,0,0-.2-.1h-.494c-1.729,0-3.675-.152-5-1.311-1.2-1.045-1.753-2.777-1.753-5.437v-5c0-4.414,2.329-6.748,6.748-6.748h8c4.419,0,6.753,2.334,6.753,6.748v5c0,4.418-2.334,6.748-6.753,6.748h-.5a.274.274,0,0,0-.2.107l-1.493,1.992a2.163,2.163,0,0,1-3.6,0Zm-7.451-13.848v5c0,2.2.393,3.566,1.243,4.311.75.658,1.952.939,4.007.939h.5a1.867,1.867,0,0,1,1.4.7l1.5,2a.677.677,0,0,0,1.2,0l1.5-2a1.766,1.766,0,0,1,1.4-.7h.5c3.583,0,5.249-1.668,5.249-5.25v-5c0-3.584-1.666-5.25-5.249-5.25h-8C16223.168,20288.947,16221.5,20290.613,16221.5,20294.2Zm13.247,4a1,1,0,1,1,0-2h.01a1,1,0,1,1,0,2Zm-4,0a1,1,0,1,1,0-2h.01a1,1,0,1,1,0,2Zm-4,0a1,1,0,1,1,0-2h.01a1,1,0,1,1,0,2Z" transform="translate(-16218.75 -20286.197)" fill="#4e5d78"/>
  <path id="Vector" d="M0,0H24V24H0Z" fill="none" opacity="0"/>
</svg>
