<svg xmlns="http://www.w3.org/2000/svg" width="18" height="12.348" viewBox="0 0 18 12.348">
  <g id="_30._Eye" data-name="30. Eye" transform="translate(9 6.174)">
    <path id="_30._Eye-2" data-name="30. Eye" d="M16.555.3a.772.772,0,0,1-.135,1.083L14.929,2.54a11.535,11.535,0,0,1,2.644,2.421,1.938,1.938,0,0,1,0,2.426A10.907,10.907,0,0,1,9,11.576a10.639,10.639,0,0,1-4.462-.954l-2.01,1.563a.772.772,0,1,1-.948-1.218l1.49-1.159A11.536,11.536,0,0,1,.427,7.387a1.938,1.938,0,0,1,0-2.426A10.907,10.907,0,0,1,9,.772a10.639,10.639,0,0,1,4.462.954L15.472.163A.772.772,0,0,1,16.555.3Zm-4.5,2.524A9.213,9.213,0,0,0,9,2.315,9.364,9.364,0,0,0,1.636,5.92a.4.4,0,0,0,0,.507A9.893,9.893,0,0,0,4.369,8.8Zm-6.1,6.7A9.212,9.212,0,0,0,9,10.033a9.364,9.364,0,0,0,7.364-3.605.4.4,0,0,0,0-.507A9.894,9.894,0,0,0,13.631,3.55Z" transform="translate(-9 -6.174)" fill="#8a94a6"/>
  </g>
</svg>
