<svg id="coin-change" xmlns="http://www.w3.org/2000/svg" width="24" height="24" viewBox="0 0 24 24">
  <g id="coin" transform="translate(-684 -444)">
    <path id="Union_117" data-name="Union 117" d="M16166.12,21667.066a.75.75,0,1,1,1.224-.869,4.2,4.2,0,0,0,7.636-2.42,4.219,4.219,0,0,0-1.757-3.416.75.75,0,0,1,.876-1.219,5.7,5.7,0,1,1-7.979,7.924ZM16155,21656.74a8.742,8.742,0,1,1,8.739,8.738A8.751,8.751,0,0,1,16155,21656.74Zm1.5,0a7.241,7.241,0,1,0,7.238-7.238A7.247,7.247,0,0,0,16156.5,21656.74Zm6.5,3.6v-.045a2.123,2.123,0,0,1-2-2.146.75.75,0,0,1,1.5,0,.629.629,0,0,0,.582.652h1.5a.449.449,0,0,0,.408-.473c0-.344-.06-.371-.288-.451l-2.4-.838a1.807,1.807,0,0,1-1.306-1.871,1.943,1.943,0,0,1,1.915-1.969h.087v-.039a.75.75,0,0,1,1.5,0v.041a2.143,2.143,0,0,1,2,2.146.75.75,0,0,1-1.5,0,.631.631,0,0,0-.6-.648h-1.489a.449.449,0,0,0-.414.469c0,.348.061.369.3.457l2.394.838h.011a1.8,1.8,0,0,1,1.283,1.865,1.942,1.942,0,0,1-1.909,1.969h-.081v.043a.75.75,0,0,1-1.5,0Z" transform="translate(-15469.75 -21202.75)" fill="#4e5d78"/>
    <path id="Vector" d="M0,0H24V24H0Z" transform="translate(684 444)" fill="none" opacity="0"/>
  </g>
</svg>
