<svg id="message-text" xmlns="http://www.w3.org/2000/svg" width="24" height="24" viewBox="0 0 24 24">
  <path id="Union_62" data-name="Union 62" d="M16169.951,20308.045l-1.5-2h0a.468.468,0,0,0-.2-.1h-.494c-1.728,0-3.675-.152-5-1.311-1.2-1.045-1.753-2.777-1.753-5.437v-5c0-4.414,2.334-6.748,6.748-6.748h8c4.414,0,6.749,2.334,6.749,6.748v5c0,4.418-2.335,6.748-6.749,6.748h-.5a.257.257,0,0,0-.2.107l-1.5,1.992a2.163,2.163,0,0,1-3.6,0Zm-7.452-13.848v5c0,2.2.4,3.566,1.244,4.311.754.658,1.952.939,4.006.939h.5a1.857,1.857,0,0,1,1.4.7l1.5,2a.681.681,0,0,0,1.2,0l1.5-2a1.774,1.774,0,0,1,1.4-.7h.5c3.583,0,5.25-1.668,5.25-5.25v-5c0-3.584-1.667-5.25-5.25-5.25h-8C16164.166,20288.947,16162.5,20290.613,16162.5,20294.2Zm4.251,5.748a.749.749,0,1,1,0-1.5h6a.749.749,0,1,1,0,1.5Zm0-5a.749.749,0,1,1,0-1.5h10a.749.749,0,1,1,0,1.5Z" transform="translate(-16159.75 -20286.197)" fill="#4e5d78"/>
  <path id="Vector" d="M0,0H24V24H0Z" fill="none" opacity="0"/>
</svg>
