<svg id="bitcoin-convert" xmlns="http://www.w3.org/2000/svg" width="24" height="24" viewBox="0 0 24 24">
  <path id="Union_22" data-name="Union 22" d="M15990.1,21223.771a.75.75,0,0,1,0-.756l1.055-1.748a.75.75,0,1,1,1.284.773l-.271.447a6.26,6.26,0,0,0,4.831-6.084.748.748,0,1,1,1.5,0,7.744,7.744,0,0,1-7.75,7.75A.735.735,0,0,1,15990.1,21223.771Zm-13.588-8.006a6.919,6.919,0,1,1,6.919,6.92A6.934,6.934,0,0,1,15976.512,21215.766Zm1.5,0a5.42,5.42,0,0,0,10.84,0v-.229c0-.07,0-.139,0-.213a5.461,5.461,0,0,0-4.98-4.965h-.048c-.145-.006-.262-.016-.384-.016A5.431,5.431,0,0,0,15978.008,21215.766Zm6.653-6.834a6.94,6.94,0,0,1,5.588,5.588,5.418,5.418,0,1,0-5.588-5.588Zm-.5,9.748a9.389,9.389,0,0,1-.517-2.137.524.524,0,0,1,.527-.521,9.316,9.316,0,0,1,2.136.512.7.7,0,0,1,.395.91,3.023,3.023,0,0,1-.677.953,3.115,3.115,0,0,1-.953.678.739.739,0,0,1-.256.047A.7.7,0,0,1,15984.16,21218.68Zm-2.413.395a3.5,3.5,0,0,1-1.63-1.631.7.7,0,0,1,.395-.91,9.316,9.316,0,0,1,2.136-.512.519.519,0,0,1,.522.521,9.138,9.138,0,0,1-.517,2.137.69.69,0,0,1-.65.441A.743.743,0,0,1,15981.747,21219.074Zm1.9-4.061a9.326,9.326,0,0,1,.517-2.135.7.7,0,0,1,.911-.395,3.166,3.166,0,0,1,.953.672,3.072,3.072,0,0,1,.677.959.7.7,0,0,1-.395.9,9.051,9.051,0,0,1-2.136.518A.528.528,0,0,1,15983.644,21215.014Zm-3.132.006a.7.7,0,0,1-.395-.9,3.435,3.435,0,0,1,1.63-1.631.691.691,0,0,1,.906.395,9.078,9.078,0,0,1,.517,2.135.523.523,0,0,1-.522.523A9.051,9.051,0,0,1,15980.512,21215.02Zm-5.513-6.615a7.747,7.747,0,0,1,7.75-7.75.75.75,0,0,1,.645,1.135l-1.05,1.752a.751.751,0,0,1-1.289-.771l.271-.453a6.259,6.259,0,0,0-4.825,6.088.751.751,0,1,1-1.5,0Z" transform="translate(-15974.75 -21200.434)" fill="#4e5d78"/>
  <g id="bitcoin-convert-2" data-name="bitcoin-convert" transform="translate(-366 -188)">
    <path id="Vector" d="M0,0H24V24H0Z" transform="translate(366 188)" fill="none" opacity="0"/>
  </g>
</svg>
