<svg id="copy" xmlns="http://www.w3.org/2000/svg" width="24" height="24" viewBox="0 0 24 24">
  <path id="Union_50" data-name="Union 50" d="M16225.649,20380.949a5.745,5.745,0,0,1-4.292-1.361c-.926-.926-1.355-2.287-1.355-4.291v-4.2c0-2.006.43-3.367,1.355-4.293a5.745,5.745,0,0,1,4.292-1.359h.353v-.348c0-2.006.43-3.365,1.355-4.291a5.743,5.743,0,0,1,4.291-1.361h4.2a5.748,5.748,0,0,1,4.3,1.361c.926.926,1.355,2.285,1.355,4.291v4.2c0,2-.43,3.365-1.355,4.291a5.748,5.748,0,0,1-4.3,1.361h-.349v.348c0,2-.43,3.365-1.355,4.291a5.748,5.748,0,0,1-4.3,1.361Zm-3.233-13.084a4.423,4.423,0,0,0-.915,3.232v4.2a3.449,3.449,0,0,0,4.148,4.152h4.2a3.455,3.455,0,0,0,4.153-4.152v-4.2a3.451,3.451,0,0,0-4.153-4.148h-4.2A4.432,4.432,0,0,0,16222.416,20367.865Zm13.084,3.232v2.348h.349a3.451,3.451,0,0,0,4.153-4.148v-4.2a3.451,3.451,0,0,0-4.153-4.148h-4.2a3.445,3.445,0,0,0-4.147,4.148v.348h2.348c2,0,3.37.434,4.3,1.359s1.355,2.287,1.355,4.293Z" transform="translate(-16218.75 -20358.197)" fill="#4e5d78"/>
  <path id="Vector" d="M0,0H24V24H0Z" fill="none" opacity="0"/>
</svg>
