<svg id="import" xmlns="http://www.w3.org/2000/svg" width="24" height="24" viewBox="0 0 24 24">
  <g id="import-2" data-name="import" transform="translate(-428 -444)">
    <path id="Union_75" data-name="Union 75" d="M16440.334,21659.105a8.875,8.875,0,0,1-2.332-6.176.75.75,0,0,1,1.5,0,7.25,7.25,0,1,0,14.5,0,.75.75,0,0,1,1.5,0,8.9,8.9,0,0,1-2.332,6.176,9.283,9.283,0,0,1-12.836,0Zm5.764-3.588-2.561-2.555a.753.753,0,0,1,1.064-1.066l1.277,1.281v-8.43a.75.75,0,0,1,1.5,0v8.432l1.283-1.283a.752.752,0,0,1,1.061,1.066l-2.561,2.555a.747.747,0,0,1-1.064,0Z" transform="translate(-16006.75 -21196.75)" fill="#4e5d78"/>
    <path id="Vector" d="M0,0H24V24H0Z" transform="translate(452 468) rotate(180)" fill="none" opacity="0"/>
  </g>
</svg>
