<svg id="profile-circle" xmlns="http://www.w3.org/2000/svg" width="24" height="24" viewBox="0 0 24 24">
  <path id="Union_34" data-name="Union 34" d="M15978.148,21078.01a10.758,10.758,0,1,1,7.6,3.146A10.7,10.7,0,0,1,15978.148,21078.01Zm-1.646-7.6a9.248,9.248,0,1,0,9.248-9.248A9.258,9.258,0,0,0,15976.5,21070.406Zm4.582,3.1a.75.75,0,0,1,.291-1.018.726.726,0,0,1,.359-.094.76.76,0,0,1,.661.385,3.862,3.862,0,0,0,3.354,1.8v.006a3.859,3.859,0,0,0,3.354-1.811.767.767,0,0,1,.661-.385.729.729,0,0,1,.36.094.757.757,0,0,1,.291,1.021,5.506,5.506,0,0,1-9.333,0Zm6.666-5.6a1.5,1.5,0,1,1,1.5,1.5A1.5,1.5,0,0,1,15987.751,21067.9Zm-7,0a1.5,1.5,0,1,1,1.5,1.5A1.5,1.5,0,0,1,15980.751,21067.9Z" transform="translate(-15973.751 -21058.404)" fill="#4e5d78"/>
  <path id="Vector" d="M0,0H24V24H0Z" transform="translate(24 24) rotate(180)" fill="none" opacity="0"/>
</svg>
