<svg id="eye" xmlns="http://www.w3.org/2000/svg" width="24" height="24" viewBox="0 0 24 24">
  <path id="Union_53" data-name="Union 53" d="M16220.793,20586.473a6.057,6.057,0,0,1,0-6c2.435-3.834,5.985-6.031,9.742-6.031s7.3,2.2,9.742,6.031a6.082,6.082,0,0,1,0,6c-2.439,3.828-5.99,6.025-9.742,6.025S16223.228,20590.3,16220.793,20586.473Zm1.262-5.2a4.593,4.593,0,0,0,0,4.389c2.16,3.385,5.25,5.334,8.48,5.334s6.32-1.949,8.476-5.334a4.581,4.581,0,0,0,0-4.383c-2.155-3.391-5.245-5.334-8.476-5.334S16224.215,20577.893,16222.055,20581.277Zm4.149,2.2a4.331,4.331,0,1,1,4.331,4.33A4.336,4.336,0,0,1,16226.2,20583.475Zm1.5,0a2.83,2.83,0,1,0,2.832-2.826A2.837,2.837,0,0,0,16227.7,20583.475Z" transform="translate(-16218.534 -20571.477)" fill="#4e5d78"/>
  <path id="Vector" d="M0,0H24V24H0Z" transform="translate(24 24) rotate(180)" fill="none" opacity="0"/>
</svg>
