<svg id="eye-slash" xmlns="http://www.w3.org/2000/svg" width="24" height="24" viewBox="0 0 24 24">
  <path id="Union_54" data-name="Union 54" d="M16161.221,20595.725a.744.744,0,0,1,0-1.059l3.368-3.369a15.459,15.459,0,0,1-2.583-3.1,6.077,6.077,0,0,1,0-6c2.439-3.83,5.991-6.027,9.743-6.027a10.325,10.325,0,0,1,5.98,1.98l3.489-3.488a.749.749,0,0,1,1.06,1.059l-7.469,7.469-5.061,5.061-7.469,7.469a.742.742,0,0,1-1.06,0Zm2.052-12.715a4.581,4.581,0,0,0,0,4.383,13.406,13.406,0,0,0,2.381,2.84l2.552-2.551a4.328,4.328,0,0,1,6.029-6.029l2.417-2.418a8.783,8.783,0,0,0-4.9-1.559C16168.519,20577.676,16165.428,20579.619,16163.272,20583.01Zm5.649,2.186a2.845,2.845,0,0,0,.367,1.4l3.861-3.861a2.858,2.858,0,0,0-1.4-.367A2.827,2.827,0,0,0,16168.922,20585.2Zm-1.044,8.225a.751.751,0,0,1,.584-1.385,8.381,8.381,0,0,0,3.287.682c3.23,0,6.322-1.943,8.478-5.334a4.581,4.581,0,0,0,0-4.383,14.553,14.553,0,0,0-1.014-1.4.752.752,0,0,1,1.174-.941,17.9,17.9,0,0,1,1.106,1.535,6.082,6.082,0,0,1,0,6c-2.435,3.83-5.986,6.027-9.744,6.027A10,10,0,0,1,16167.878,20593.42Zm3.825-4.568a.758.758,0,0,1,.6-.875,2.8,2.8,0,0,0,2.217-2.217.752.752,0,0,1,1.479.273,4.335,4.335,0,0,1-3.422,3.422,1.093,1.093,0,0,1-.134.01A.751.751,0,0,1,16171.7,20588.852Z" transform="translate(-16159.75 -20573.197)" fill="#4e5d78"/>
  <path id="Vector" d="M0,0H24V24H0Z" transform="translate(24 24) rotate(180)" fill="none" opacity="0"/>
</svg>
