<svg id="facebook" xmlns="http://www.w3.org/2000/svg" width="19.649" height="19.649" viewBox="0 0 19.649 19.649">
  <rect id="Rectangle_1608" data-name="Rectangle 1608" width="19.649" height="19.649" transform="translate(19.649 19.649) rotate(180)" fill="#0839aa" opacity="0"/>
  <path id="Path_5043" data-name="Path 5043" d="M15,3.408A.409.409,0,0,0,14.594,3H12.548A3.9,3.9,0,0,0,8.455,6.682v2.21H6.409A.409.409,0,0,0,6,9.3v2.128a.409.409,0,0,0,.409.409H8.455v5.484a.409.409,0,0,0,.409.409H11.32a.409.409,0,0,0,.409-.409V11.839h2.144a.409.409,0,0,0,.4-.3l.589-2.128a.409.409,0,0,0-.393-.516H11.729V6.682a.818.818,0,0,1,.818-.737h2.046A.409.409,0,0,0,15,5.536Z" transform="translate(-1.089 -0.538)" fill="#0839aa"/>
</svg>
