<svg id="filter" xmlns="http://www.w3.org/2000/svg" width="24" height="24" viewBox="0 0 24 24">
  <path id="Vector" d="M2-.75H15.2A2.753,2.753,0,0,1,17.95,2V4.2a4.506,4.506,0,0,1-1.22,2.83l-.034.032-4.3,3.8-.017.014a2.521,2.521,0,0,0-.73,1.724v4.3A2.962,2.962,0,0,1,10.4,19.236l-1.392.895-.012.008a2.754,2.754,0,0,1-1.444.408A2.877,2.877,0,0,1,5.624,19.8a2.682,2.682,0,0,1-.874-2V12.5a3.174,3.174,0,0,0-.618-1.609L.362,6.923A4.041,4.041,0,0,1-.75,4.4V2.1A2.772,2.772,0,0,1,2-.75Zm13.684,6.7A3.024,3.024,0,0,0,16.45,4.2V2A1.251,1.251,0,0,0,15.2.75H2A1.289,1.289,0,0,0,.75,2.1V4.4a2.618,2.618,0,0,0,.68,1.47l.013.014,3.8,4q.022.023.042.048A4.577,4.577,0,0,1,6.25,12.5v5.3a1.263,1.263,0,0,0,1.3,1.247,1.237,1.237,0,0,0,.652-.182l1.393-.9.02-.012A1.534,1.534,0,0,0,10.15,16.9V12.6a3.975,3.975,0,0,1,1.261-2.869Z" transform="translate(3.399 2.1)" fill="#4e5d78"/>
  <path id="Vector-2" data-name="Vector" d="M0,0H24V24H0Z" fill="none" opacity="0"/>
</svg>
