<svg xmlns="http://www.w3.org/2000/svg" width="24" height="24" viewBox="0 0 24 24">
  <g id="gallery" transform="translate(-364 -252)">
    <path id="Union_49" data-name="Union 49" d="M16346.748,20704.949c-2.77,0-4.646-.588-5.9-1.846s-1.845-3.139-1.845-5.908v-6c0-2.77.588-4.65,1.845-5.908s3.134-1.844,5.9-1.844h6c2.77,0,4.646.586,5.908,1.844s1.845,3.139,1.845,5.908v6c0,2.77-.588,4.646-1.845,5.908s-3.139,1.846-5.908,1.846Zm-4.843-2.91c.961.961,2.5,1.408,4.843,1.408h6c2.349,0,3.887-.447,4.843-1.408s1.408-2.494,1.408-4.844v-.752l-1.372-1.176a1.469,1.469,0,0,0-1.84,0l-4.162,3.57a2.973,2.973,0,0,1-3.8,0c0-.006,0-.006-.006-.006l-.327-.285a1.491,1.491,0,0,0-1.73-.088l-4.373,2.938A3.732,3.732,0,0,0,16341.905,20702.039Zm0-15.687c-.962.961-1.4,2.5-1.4,4.848v6a11.11,11.11,0,0,0,.3,2.795l4.128-2.773a3.022,3.022,0,0,1,3.549.191l0,.006.327.285a1.485,1.485,0,0,0,1.84,0l4.162-3.568a2.961,2.961,0,0,1,3.793,0l.4.338v-3.27c0-2.348-.447-3.887-1.408-4.848s-2.494-1.4-4.843-1.4h-6C16344.4,20684.947,16342.866,20685.395,16341.905,20686.352Zm2.094,3.846a2.751,2.751,0,1,1,2.749,2.748A2.754,2.754,0,0,1,16344,20690.2Zm1.5,0a1.25,1.25,0,1,0,1.247-1.248A1.253,1.253,0,0,0,16345.5,20690.2Z" transform="translate(-15973.75 -20430.197)" fill="#4e5d78"/>
    <path id="Vector" d="M0,0H24V24H0Z" transform="translate(364 252)" fill="none" opacity="0"/>
  </g>
</svg>
