<svg id="Component_129_1" data-name="Component 129 – 1" xmlns="http://www.w3.org/2000/svg" width="24" height="24" viewBox="0 0 24 24">
  <rect id="Rectangle_3481" data-name="Rectangle 3481" width="24" height="24" fill="none"/>
  <g id="_x31__stroke" transform="translate(5 5)">
    <g id="Google">
      <rect id="Rectangle_3479" data-name="Rectangle 3479" width="15" height="15" fill="none"/>
      <path id="Path_7394" data-name="Path 7394" d="M4.439,38.97a4.434,4.434,0,0,1,.225-1.392l-2.528-1.93a7.551,7.551,0,0,0,0,6.643l2.526-1.934a4.437,4.437,0,0,1-.223-1.386" transform="translate(-1.206 -31.47)" fill="#fbbc05" fill-rule="evenodd"/>
      <path id="Path_7395" data-name="Path 7395" d="M14.679,3.068a4.346,4.346,0,0,1,2.765.989l2.185-2.182a7.506,7.506,0,0,0-11.691,2.3l2.528,1.93a4.426,4.426,0,0,1,4.213-3.039" transform="translate(-7.008)" fill="#ea4335" fill-rule="evenodd"/>
      <path id="Path_7396" data-name="Path 7396" d="M14.679,78.92a4.426,4.426,0,0,1-4.213-3.039l-2.528,1.93a7.488,7.488,0,0,0,6.741,4.178,7.157,7.157,0,0,0,4.894-1.869l-2.4-1.855a4.646,4.646,0,0,1-2.494.656" transform="translate(-7.008 -66.989)" fill="#34a853" fill-rule="evenodd"/>
      <path id="Path_7397" data-name="Path 7397" d="M72.626,53.728a6.212,6.212,0,0,0-.171-1.364h-7v2.9h4.028A3.377,3.377,0,0,1,67.951,57.5l2.4,1.855a7.459,7.459,0,0,0,2.276-5.631" transform="translate(-57.786 -46.228)" fill="#4285f4" fill-rule="evenodd"/>
    </g>
  </g>
</svg>
