<svg id="home" xmlns="http://www.w3.org/2000/svg" width="24" height="24" viewBox="0 0 24 24">
  <path id="Union_36" data-name="Union 36" d="M16166.153,21011.576a3.957,3.957,0,0,1-3.781-3.2l-1.329-7.961a4.133,4.133,0,0,1,1.382-3.623l6.929-5.547a3.814,3.814,0,0,1,2.39-.8,3.854,3.854,0,0,1,2.409.813l6.93,5.537a4.209,4.209,0,0,1,1.381,3.617l-1.328,7.963a3.88,3.88,0,0,1-1.329,2.268,3.836,3.836,0,0,1-2.452.934Zm4.14-19.158-6.93,5.553a2.615,2.615,0,0,0-.844,2.193l1.334,7.969a2.451,2.451,0,0,0,2.3,1.939h11.2a2.452,2.452,0,0,0,2.3-1.945l1.329-7.957a2.719,2.719,0,0,0-.839-2.205l-6.929-5.537a2.385,2.385,0,0,0-1.471-.479A2.338,2.338,0,0,0,16170.293,20992.418Zm.712,14.6v-3a.749.749,0,0,1,1.5,0v3a.749.749,0,1,1-1.5,0Z" transform="translate(-16159.753 -20989.014)" fill="#4e5d78"/>
  <path id="Vector" d="M0,0H24V24H0Z" fill="none" opacity="0"/>
</svg>
