<svg id="Component_264_12" data-name="Component 264 – 12" xmlns="http://www.w3.org/2000/svg" width="24" height="24" viewBox="0 0 24 24">
  <g id="Group_6771" data-name="Group 6771" transform="translate(1.137 1.336)">
    <path id="Path_7709" data-name="Path 7709" d="M15.9,14a.773.773,0,0,0-.8.7v2.4a.713.713,0,0,0,.8.7.684.684,0,0,0,.7-.7V14.7C16.7,14.3,16.3,14,15.9,14Z" fill="#a9bcd1"/>
    <path id="Path_7710" data-name="Path 7710" d="M14.5,8.9a.789.789,0,0,0-.8.8.713.713,0,0,0,.8.7h2.8a.773.773,0,0,0,.8-.7.789.789,0,0,0-.8-.8Z" fill="#a9bcd1"/>
    <path id="Path_7711" data-name="Path 7711" d="M15.9,11a4.9,4.9,0,1,0,4.9,4.9A4.908,4.908,0,0,0,15.9,11Zm0,8.3a3.4,3.4,0,1,1,3.4-3.4A3.372,3.372,0,0,1,15.9,19.3Z" fill="#a9bcd1"/>
    <path id="Path_7712" data-name="Path 7712" d="M12.3,9.8V9.6a2.326,2.326,0,0,1,2.3-2.3h2.8a2.275,2.275,0,0,1,2,1.2c.1,0,.1,0,.2-.1a2.069,2.069,0,0,0,1.2-2.7,11.542,11.542,0,0,0-2-2.9,9.989,9.989,0,0,0-2.9-2h0A2.069,2.069,0,0,0,13.2,2a23.842,23.842,0,0,0-1.5,6.4A1.445,1.445,0,0,0,12.3,9.8Z" fill="#a9bcd1"/>
    <path id="Path_7713" data-name="Path 7713" d="M8.6,11.5A35.014,35.014,0,0,0,2.2,13h0A2.069,2.069,0,0,0,1,15.7a11.542,11.542,0,0,0,2,2.9,9.989,9.989,0,0,0,2.9,2h0a2.069,2.069,0,0,0,2.7-1.2A23.842,23.842,0,0,0,10.1,13h0A1.415,1.415,0,0,0,8.6,11.5Z" fill="#a9bcd1"/>
    <path id="Path_7714" data-name="Path 7714" d="M5.9.9h0A11.542,11.542,0,0,0,3,2.9,9.989,9.989,0,0,0,1,5.8,2.069,2.069,0,0,0,2.2,8.5h0A23.842,23.842,0,0,0,8.6,10a1.58,1.58,0,0,0,1.6-1.6A27.751,27.751,0,0,0,8.6,2.1,2.069,2.069,0,0,0,5.9.9Z" fill="#a9bcd1"/>
  </g>
  <rect id="Rectangle_3828" data-name="Rectangle 3828" width="24" height="24" fill="none"/>
</svg>
