<svg id="ico_orimatla_color" xmlns="http://www.w3.org/2000/svg" width="24" height="24" viewBox="0 0 24 24">
  <g id="Group_5322" data-name="Group 5322">
    <rect id="Rectangle_3346" data-name="Rectangle 3346" width="24" height="24" fill="none"/>
    <g id="Group_5321" data-name="Group 5321">
      <path id="Path_7270" data-name="Path 7270" d="M20.67,14.254a27.63,27.63,0,0,0-6.392-1.546,1.571,1.571,0,0,0-1.571,1.57,27.585,27.585,0,0,0,1.547,6.392,2.094,2.094,0,0,0,2.714,1.185,9.508,9.508,0,0,0,2.863-2.024,9.475,9.475,0,0,0,2.023-2.863A2.093,2.093,0,0,0,20.67,14.254Z" fill="#377dff"/>
      <path id="Path_7271" data-name="Path 7271" d="M20.67,9.725a27.63,27.63,0,0,1-6.392,1.546A1.571,1.571,0,0,1,12.707,9.7a27.577,27.577,0,0,1,1.547-6.391,2.094,2.094,0,0,1,2.714-1.185,9.49,9.49,0,0,1,2.863,2.024,9.475,9.475,0,0,1,2.023,2.863A2.094,2.094,0,0,1,20.67,9.725Z" fill="#ff1d5e"/>
      <path id="Path_7272" data-name="Path 7272" d="M3.33,14.254a27.623,27.623,0,0,1,6.391-1.546,1.57,1.57,0,0,1,1.571,1.57A27.63,27.63,0,0,1,9.746,20.67a2.094,2.094,0,0,1-2.714,1.185,9.5,9.5,0,0,1-2.863-2.024,9.478,9.478,0,0,1-2.024-2.863A2.093,2.093,0,0,1,3.33,14.254Z" fill="#00b734"/>
      <path id="Path_7273" data-name="Path 7273" d="M3.33,9.725a27.623,27.623,0,0,0,6.391,1.546A1.571,1.571,0,0,0,11.292,9.7,27.623,27.623,0,0,0,9.746,3.309,2.093,2.093,0,0,0,7.032,2.124,9.478,9.478,0,0,0,4.169,4.148,9.478,9.478,0,0,0,2.145,7.011,2.093,2.093,0,0,0,3.33,9.725Z" fill="#ffb522"/>
    </g>
  </g>
</svg>
