<svg id="info-circle" xmlns="http://www.w3.org/2000/svg" width="24" height="24" viewBox="0 0 24 24">
  <path id="Union_40" data-name="Union 40" d="M15803.157,21008.791a10.709,10.709,0,1,1,7.594,3.158A10.677,10.677,0,0,1,15803.157,21008.791Zm-1.655-7.594a9.249,9.249,0,1,0,9.249-9.25A9.259,9.259,0,0,0,15801.5,21001.2Zm9.243,5a1,1,0,1,1,0-2h.006a1,1,0,1,1,0,2Zm-.743-4v-5a.749.749,0,1,1,1.5,0v5a.749.749,0,0,1-1.5,0Z" transform="translate(-15798.75 -20989.197)" fill="#4e5d78"/>
  <path id="Vector" d="M0,0H24V24H0Z" fill="none" opacity="0"/>
</svg>
