<svg id="Component_82_1" data-name="Component 82 – 1" xmlns="http://www.w3.org/2000/svg" width="24" height="24" viewBox="0 0 24 24">
  <g id="Group_5246" data-name="Group 5246" transform="translate(5.52 8)">
    <path id="Union_27" data-name="Union 27" d="M15801.393,21134.994a3.752,3.752,0,0,1-3.75-3.75v-4.031l-1.884,1.879a.748.748,0,0,1-1.278-.525.774.774,0,0,1,.218-.535l3.161-3.156s0,0,0,0a.75.75,0,0,1,.492-.221h.078a.746.746,0,0,1,.379.129.734.734,0,0,1,.146.129l3.126,3.121a.753.753,0,0,1,0,1.061.744.744,0,0,1-1.062,0l-1.877-1.875v4.027a2.25,2.25,0,0,0,2.249,2.25h6.317a.75.75,0,1,1,0,1.5Z" transform="translate(-15795.23 -21125.404)" fill="#4e5d78"/>
  </g>
  <path id="Vector" d="M0,24H24V0H0Z" fill="none" opacity="0"/>
</svg>
