<svg xmlns="http://www.w3.org/2000/svg" width="13.5" height="18" viewBox="0 0 13.5 18">
  <path id="_5._Lock" data-name="5. Lock" d="M6.75,1.5a3,3,0,0,0-3,3v3h6v-3A3,3,0,0,0,6.75,1.5Zm4.5,6v-3a4.5,4.5,0,0,0-9,0v3A2.25,2.25,0,0,0,0,9.75v6A2.25,2.25,0,0,0,2.25,18h9a2.25,2.25,0,0,0,2.25-2.25v-6A2.25,2.25,0,0,0,11.25,7.5ZM2.25,9a.75.75,0,0,0-.75.75v6a.75.75,0,0,0,.75.75h9a.75.75,0,0,0,.75-.75v-6A.75.75,0,0,0,11.25,9Zm4.5,2.25A.75.75,0,0,1,7.5,12v1.5a.75.75,0,0,1-1.5,0V12A.75.75,0,0,1,6.75,11.25Z" fill="#8a94a6" fill-rule="evenodd"/>
</svg>
