<svg xmlns="http://www.w3.org/2000/svg" width="24" height="24" viewBox="0 0 24 24">
  <g id="logout" transform="translate(-748 -444)">
    <path id="Union_25" data-name="Union 25" d="M16650.359,21596.193a7.658,7.658,0,0,1-4.953-1.328,5.955,5.955,0,0,1-1.994-4.342.751.751,0,0,1,1.5-.141,4.469,4.469,0,0,0,1.436,3.307,6.361,6.361,0,0,0,4.016,1h.131c2.076,0,3.436-.389,4.275-1.23s1.236-2.2,1.236-4.275v-6.52c0-2.076-.4-3.437-1.236-4.277s-2.2-1.234-4.275-1.234h-.131a6.313,6.313,0,0,0-4.031,1.018,4.55,4.55,0,0,0-1.432,3.365.751.751,0,1,1-1.5-.129c.348-3.979,2.494-5.756,6.959-5.756h.131c2.5,0,4.2.531,5.338,1.674s1.67,2.84,1.67,5.34v6.52c0,2.5-.531,4.2-1.67,5.334s-2.84,1.674-5.338,1.674Zm-9.787-6.4-3.355-3.35a.756.756,0,0,1,0-1.057l3.355-3.355a.756.756,0,0,1,1.057,0,.745.745,0,0,1,0,1.063l-2.07,2.07h10.693a.751.751,0,0,1,0,1.5h-10.689l2.066,2.07a.738.738,0,0,1,0,1.057.738.738,0,0,1-1.057,0Z" transform="translate(-15887.25 -21129.914)" fill="#4e5d78"/>
    <path id="Vector" d="M0,0H24V24H0Z" transform="translate(772 468) rotate(180)" fill="none" opacity="0"/>
  </g>
</svg>
