<svg id="Component_62_1" data-name="Component 62 – 1" xmlns="http://www.w3.org/2000/svg" width="18" height="18" viewBox="0 0 18 18">
  <rect id="Rectangle_3311" data-name="Rectangle 3311" width="18" height="18" fill="none"/>
  <g id="Group_5240" data-name="Group 5240" transform="translate(-453.75 -1237.375)">
    <path id="Union_52" data-name="Union 52" d="M16614.8,21600.975l-2.828-2.83a.751.751,0,0,1,1.063-1.062l2.3,2.3.449-.447-.807-.789a.748.748,0,0,1-.227-.537.715.715,0,0,1,.217-.52.745.745,0,0,1,1.057-.018l.822.8,3.629-3.621a.749.749,0,1,1,1.057,1.063l-5.67,5.66a.739.739,0,0,1-.527.217A.751.751,0,0,1,16614.8,21600.975Zm3-.006a.747.747,0,0,1-.223-.531.757.757,0,0,1,.223-.531l5.67-5.66a.751.751,0,0,1,.531-.217.75.75,0,0,1,.75.748.747.747,0,0,1-.223.531l-5.666,5.66a.745.745,0,0,1-1.062,0Z" transform="translate(-16155.75 -20351.406)" fill="#00c48c"/>
  </g>
</svg>
