<svg xmlns="http://www.w3.org/2000/svg" width="181" height="181" viewBox="0 0 181 181">
  <g id="Mining" opacity="0.2">
    <rect id="Rectangle_3829" data-name="Rectangle 3829" width="181" height="181" fill="none"/>
    <g id="_62._Mining" data-name="62. Mining" transform="translate(26.381 28.485)">
      <g id="Group_6775" data-name="Group 6775" transform="translate(0)">
        <path id="Path_7154" data-name="Path 7154" d="M23.02,27.563a5.417,5.417,0,0,0,7.372-1.656l5.342-8.761a5.343,5.343,0,0,0-9.028-5.716l-5.342,8.761A5.342,5.342,0,0,0,23.02,27.563Z" transform="translate(89.161 38.843)" fill="#fff"/>
        <path id="Path_7155" data-name="Path 7155" d="M23.693,26.492a5.342,5.342,0,0,0,3.579-9.3L21.93,12.5a5.352,5.352,0,1,0-7.158,7.96l5.342,4.7A5.342,5.342,0,0,0,23.693,26.492Z" transform="translate(56.44 48.303)" fill="#fff"/>
        <path id="Path_7156" data-name="Path 7156" d="M81.2,38.1a61.539,61.539,0,0,1,11.218,26.71,5.342,5.342,0,0,0,5.342,4.434h.908a5.342,5.342,0,0,0,4.327-6.2A73.4,73.4,0,0,0,88.842,30.459,10.684,10.684,0,0,0,73.831,15.5,76.713,76.713,0,0,0,29.759.009a5.353,5.353,0,1,0-.694,10.684A67.1,67.1,0,0,1,66.031,23.087l-4.113,4.06A10.684,10.684,0,0,0,59.194,37.4L1.553,95.1a5.345,5.345,0,0,0,7.586,7.532l57.641-57.64a9.082,9.082,0,0,0,2.671.427,10.684,10.684,0,0,0,7.532-3.152Z" transform="translate(0.001 0.002)" fill="#fff"/>
        <path id="Path_7157" data-name="Path 7157" d="M40.71,14a26.71,26.71,0,1,0,26.71,26.71A26.71,26.71,0,0,0,40.71,14Zm0,42.736A16.026,16.026,0,1,1,56.737,40.71,16.026,16.026,0,0,1,40.71,56.736Z" transform="translate(60.788 60.803)" fill="#fff"/>
      </g>
    </g>
  </g>
</svg>
