<svg xmlns="http://www.w3.org/2000/svg" width="24" height="24" viewBox="0 0 24 24">
  <g id="more-circle" transform="translate(-300 -252)">
    <path id="Vector" d="M0,0H24V24H0Z" transform="translate(300 252)" fill="none" opacity="0"/>
    <path id="Union_39" data-name="Union 39" d="M16611.5,21890a1.5,1.5,0,0,1,0-3h.006a1.5,1.5,0,0,1,0,3Zm-6,0a1.5,1.5,0,1,1,0-3h.006a1.5,1.5,0,0,1,0,3Zm-6,0a1.5,1.5,0,0,1,0-3h.012a1.5,1.5,0,0,1,0,3Z" transform="translate(22200.5 -16341.299) rotate(90)" fill="#4e5d78"/>
  </g>
</svg>
