<svg id="notification" xmlns="http://www.w3.org/2000/svg" width="24" height="24" viewBox="0 0 24 24">
  <path id="Union_57" data-name="Union 57" d="M16167.148,20870.176a3.764,3.764,0,0,1-.909-1.475,21.54,21.54,0,0,1-3.318-.824,2.789,2.789,0,0,1-1.765-1.645,2.746,2.746,0,0,1,.277-2.383l1.152-1.912a4.071,4.071,0,0,0,.461-1.672v-2.891a6.759,6.759,0,0,1,4.356-6.312,2.738,2.738,0,0,1,4.786,0,6.765,6.765,0,0,1,4.36,6.314v2.891a4.218,4.218,0,0,0,.456,1.682l1.142,1.9a2.745,2.745,0,0,1-1.482,4.027,21.328,21.328,0,0,1-3.3.822,3.746,3.746,0,0,1-6.213,1.477Zm1.058-1.062a2.25,2.25,0,0,0,3.354-.191q-.88.07-1.768.07t-1.757-.07A2.246,2.246,0,0,0,16168.206,20869.113Zm-3.656-11.738v2.891a5.56,5.56,0,0,1-.676,2.441l-1.152,1.912a1.175,1.175,0,0,0,.676,1.838,20.2,20.2,0,0,0,12.791,0,1.254,1.254,0,0,0,.676-1.834l-1.157-1.918a5.733,5.733,0,0,1-.66-2.436v-2.891a5.257,5.257,0,0,0-3.754-5.031,4.856,4.856,0,0,0-.693-.133,6.145,6.145,0,0,0-.816-.053,5.926,5.926,0,0,0-1.508.193A5.254,5.254,0,0,0,16164.55,20857.375Z" transform="translate(-16157.778 -20848.465)" fill="#4e5d78"/>
  <path id="Vector" d="M0,0H24V24H0Z" fill="none" opacity="0"/>
</svg>
