<svg xmlns="http://www.w3.org/2000/svg" width="18" height="10.804" viewBox="0 0 18 10.804">
  <g id="_29._Eye" data-name="29. Eye" transform="translate(9 5.402)">
    <path id="_29._Eye-2" data-name="29. Eye" d="M9,1.543A9.364,9.364,0,0,0,1.636,5.149a.4.4,0,0,0,0,.507A9.364,9.364,0,0,0,9,9.261a9.364,9.364,0,0,0,7.364-3.605.4.4,0,0,0,0-.507A9.364,9.364,0,0,0,9,1.543ZM.427,4.189a10.868,10.868,0,0,1,17.147,0,1.938,1.938,0,0,1,0,2.426A10.907,10.907,0,0,1,9,10.8,10.907,10.907,0,0,1,.427,6.615,1.938,1.938,0,0,1,.427,4.189ZM9,3.859A1.543,1.543,0,1,0,10.544,5.4,1.543,1.543,0,0,0,9,3.859ZM5.913,5.4A3.087,3.087,0,1,1,9,8.489,3.087,3.087,0,0,1,5.913,5.4Z" transform="translate(-9 -5.402)" fill="#8a94a6"/>
  </g>
</svg>
