<svg id="gallery-remove" xmlns="http://www.w3.org/2000/svg" width="24" height="24" viewBox="0 0 24 24">
  <g id="gallery-remove-2" data-name="gallery-remove" transform="translate(-108 -316)">
    <path id="Vector" d="M4.97,0H2.03A1.866,1.866,0,0,0,0,2.03V4.97A1.866,1.866,0,0,0,2.03,7H4.97A1.866,1.866,0,0,0,7,4.97V2.03A1.866,1.866,0,0,0,4.97,0Zm.5,4.56a.646.646,0,0,1,0,.91.665.665,0,0,1-.91,0L3.5,4.41,2.45,5.47a.665.665,0,0,1-.91,0,.646.646,0,0,1,0-.91L2.6,3.5,1.54,2.45a.643.643,0,1,1,.91-.91L3.5,2.6,4.56,1.54a.643.643,0,0,1,.91.91L4.41,3.5Z" transform="translate(124 317)" fill="#292d32"/>
    <path id="Vector-2" data-name="Vector" d="M4.76,2.38A2.38,2.38,0,1,1,2.38,0,2.38,2.38,0,0,1,4.76,2.38Z" transform="translate(114.62 321.62)" fill="#292d32"/>
    <path id="Vector-3" data-name="Vector" d="M18.97,6H18.5v4.61l-.13-.11a2.229,2.229,0,0,0-2.82,0l-4.16,3.57a2.229,2.229,0,0,1-2.82,0l-.34-.28a2.221,2.221,0,0,0-2.64-.14L1.85,16.16a5.333,5.333,0,0,1-.35-1.97V5.81C1.5,2.99,2.99,1.5,5.81,1.5H14V1.03A2.09,2.09,0,0,1,14.23,0H5.81C2.17,0,0,2.17,0,5.81v8.38a6.723,6.723,0,0,0,.56,2.84C1.42,18.93,3.26,20,5.81,20h8.38C17.83,20,20,17.83,20,14.19V5.77A2.09,2.09,0,0,1,18.97,6Z" transform="translate(110 318)" fill="#292d32"/>
    <path id="Vector-4" data-name="Vector" d="M0,0H24V24H0Z" transform="translate(108 316)" fill="none" opacity="0"/>
  </g>
</svg>
