<svg id="Component_264_36" data-name="Component 264 – 36" xmlns="http://www.w3.org/2000/svg" width="24" height="24" viewBox="0 0 24 24">
  <path id="Union_40" data-name="Union 40" d="M15803.157,21008.791a10.709,10.709,0,1,1,7.594,3.158A10.677,10.677,0,0,1,15803.157,21008.791Zm-1.655-7.594a9.249,9.249,0,1,0,9.249-9.25A9.259,9.259,0,0,0,15801.5,21001.2Zm9.243,6a1,1,0,1,1,0-2h.006a1,1,0,1,1,0,2Zm-.475-2.848a.341.341,0,0,1-.353-.354v-.67a2.9,2.9,0,0,1,.453-1.523,10.056,10.056,0,0,1,1.224-1.461,8.99,8.99,0,0,0,.954-1.107,1.636,1.636,0,0,0,.3-.953,1.409,1.409,0,0,0-.644-1.225,2.523,2.523,0,0,0-1.5-.453,2.168,2.168,0,0,0-2.353,2.01.41.41,0,0,1-.432.369h-.808a.356.356,0,0,1-.269-.1.344.344,0,0,1-.1-.268,3.37,3.37,0,0,1,.527-1.7,3.545,3.545,0,0,1,1.4-1.25,4.471,4.471,0,0,1,2.077-.469,4.6,4.6,0,0,1,2.089.428,2.944,2.944,0,0,1,1.249,1.107,2.779,2.779,0,0,1,.4,1.449,2.741,2.741,0,0,1-.385,1.477,9.715,9.715,0,0,1-1.16,1.439,10.7,10.7,0,0,0-.955,1.135,2.141,2.141,0,0,0-.369,1.027c-.021.313-.031.549-.031.707-.059.254-.2.385-.417.385Z" transform="translate(-15798.75 -20989.197)" fill="#fff"/>
  <path id="Vector" d="M0,0H24V24H0Z" fill="none" opacity="0"/>
</svg>
