<svg xmlns="http://www.w3.org/2000/svg" width="24" height="24" viewBox="0 0 24 24">
  <g id="redo" transform="translate(-172 -316)">
    <path id="Union_29" data-name="Union 29" d="M15887.75,21462.123a5.75,5.75,0,0,1,0-11.5h9.512l-1.341-1.342a.743.743,0,0,1,0-1.061.753.753,0,0,1,1.061,0l2.559,2.559a.753.753,0,0,1,0,1.061l-2.559,2.559a.747.747,0,0,1-1.061,0,.743.743,0,0,1,0-1.061l1.22-1.217h-9.391a4.249,4.249,0,1,0,0,8.5h8a.752.752,0,1,1,0,1.5Z" transform="translate(-15706.88 -21127.061)" fill="#4e5d78"/>
    <path id="Vector" d="M0,0H24V24H0Z" transform="translate(196 340) rotate(180)" fill="none" opacity="0"/>
  </g>
</svg>
