<svg id="Component_83_1" data-name="Component 83 – 1" xmlns="http://www.w3.org/2000/svg" width="24" height="24" viewBox="0 0 24 24">
  <g id="Group_5245" data-name="Group 5245" transform="translate(-681.26 -453.32)">
    <path id="Union_26" data-name="Union 26" d="M16526.012,21596.314a.75.75,0,1,1,0-1.5h6.318a2.252,2.252,0,0,0,2.25-2.25v-4.033l-1.881,1.881a.747.747,0,1,1-1.057-1.057l3.111-3.111a.741.741,0,0,1,.574-.27.754.754,0,0,1,.576.266l3.115,3.115a.749.749,0,1,1-1.062,1.057l-1.875-1.875v4.027a3.755,3.755,0,0,1-3.752,3.75Z" transform="translate(-15838.75 -21125.404)" fill="#4e5d78"/>
  </g>
  <path id="Vector" d="M0,0H24V24H0Z" transform="translate(24 24) rotate(180)" fill="none" opacity="0"/>
</svg>
