<svg xmlns="http://www.w3.org/2000/svg" width="24" height="24" viewBox="0 0 24 24">
  <g id="scan-barcode" transform="translate(-428 -252)">
    <path id="Union_56" data-name="Union 56" d="M16499.75,20847.947a.751.751,0,0,1,0-1.5h1.5a3.749,3.749,0,0,0,3.746-3.746v-1.5a.751.751,0,0,1,1.5,0v1.5a5.254,5.254,0,0,1-5.248,5.248Zm-9.5,0a5.254,5.254,0,0,1-5.248-5.248v-2.5a.748.748,0,0,1,1.5,0v2.5a3.753,3.753,0,0,0,3.752,3.746h2.5a.751.751,0,0,1,0,1.5Zm8.5-3.5a2.069,2.069,0,0,1-2.25-2.25v-2a2.069,2.069,0,0,1,2.25-2.25h2a2.069,2.069,0,0,1,2.25,2.25v2a2.069,2.069,0,0,1-2.25,2.25Zm-.754-4.25v2c0,.58.168.748.754.748h2c.58,0,.748-.168.748-.748v-2c0-.58-.168-.748-.748-.748h-2C16498.166,20839.449,16498,20839.617,16498,20840.2Zm-7.246,4.25a2.069,2.069,0,0,1-2.25-2.25v-2a2.069,2.069,0,0,1,2.25-2.25h2a2.069,2.069,0,0,1,2.25,2.25v2a2.069,2.069,0,0,1-2.25,2.25Zm-.754-4.25v2c0,.58.168.748.754.748h2c.58,0,.748-.168.748-.748v-2c0-.58-.168-.748-.748-.748h-2C16490.166,20839.449,16490,20839.617,16490,20840.2Zm8.754-3.75a2.069,2.069,0,0,1-2.25-2.25v-2a2.069,2.069,0,0,1,2.25-2.25h2a2.069,2.069,0,0,1,2.25,2.25v2a2.069,2.069,0,0,1-2.25,2.25Zm-.754-4.25v2c0,.58.168.748.754.748h2c.58,0,.748-.168.748-.748v-2c0-.58-.168-.748-.748-.748h-2C16498.166,20831.449,16498,20831.617,16498,20832.2Zm-7.246,4.25a2.069,2.069,0,0,1-2.25-2.25v-2a2.069,2.069,0,0,1,2.25-2.25h2a2.069,2.069,0,0,1,2.25,2.25v2a2.069,2.069,0,0,1-2.25,2.25Zm-.754-4.25v2c0,.58.168.748.754.748h2c.58,0,.748-.168.748-.748v-2c0-.58-.168-.748-.748-.748h-2C16490.166,20831.449,16490,20831.617,16490,20832.2Zm15,2v-2.5a3.749,3.749,0,0,0-3.746-3.746h-2.5a.751.751,0,1,1,0-1.5h2.5a5.254,5.254,0,0,1,5.248,5.248v2.5a.751.751,0,0,1-1.5,0Zm-20,0v-2.5a5.254,5.254,0,0,1,5.248-5.248h2.5a.751.751,0,0,1,0,1.5h-2.5a3.753,3.753,0,0,0-3.752,3.746v2.5a.748.748,0,0,1-1.5,0Z" transform="translate(-16055.75 -20573.197)" fill="#4e5d78"/>
    <path id="Vector" d="M0,0H24V24H0Z" transform="translate(452 276) rotate(180)" fill="none" opacity="0"/>
  </g>
</svg>
