<svg id="user-search" xmlns="http://www.w3.org/2000/svg" width="24" height="24" viewBox="0 0 24 24">
  <g id="user-search-2" data-name="user-search" transform="translate(-428 -188)">
    <path id="Union_30" data-name="Union 30" d="M16554.809,21268.73l-1-1a.75.75,0,0,1-.055-.059,3.951,3.951,0,1,1,1.736-3.273,3.913,3.913,0,0,1-.684,2.217.528.528,0,0,1,.059.053l1,1a.752.752,0,0,1,0,1.063.754.754,0,0,1-1.062,0Zm-5.717-4.336a2.45,2.45,0,1,0,2.449-2.449A2.454,2.454,0,0,0,16549.092,21264.395Zm-13.094,3.8a7.1,7.1,0,0,1,2.8-5.529,10.343,10.343,0,0,1,6.545-2.221.75.75,0,1,1,0,1.5c-4.324,0-7.842,2.807-7.842,6.25a.75.75,0,1,1-1.5,0Zm3.592-15a5.749,5.749,0,1,1,5.75,5.748A5.755,5.755,0,0,1,16539.59,21253.2Zm1.5,0a4.249,4.249,0,1,0,4.25-4.25A4.254,4.254,0,0,0,16541.09,21253.2Z" transform="translate(-16105.34 -21058.197)" fill="#4e5d78"/>
    <path id="Vector" d="M0,0H24V24H0Z" transform="translate(428 188)" fill="none" opacity="0"/>
  </g>
</svg>
