<svg id="search-normal" xmlns="http://www.w3.org/2000/svg" width="24" height="24" viewBox="0 0 24 24">
  <path id="Union_60" data-name="Union 60" d="M16240.219,20660.729l-2-2a.752.752,0,0,1,1.063-1.064l2,2a.75.75,0,0,1-.534,1.281A.743.743,0,0,1,16240.219,20660.729ZM16220,20649.7a10.249,10.249,0,1,1,10.246,10.252A10.254,10.254,0,0,1,16220,20649.7Zm1.5,0a8.75,8.75,0,1,0,8.747-8.748A8.759,8.759,0,0,0,16221.5,20649.7Z" transform="translate(-16218.75 -20638.197)" fill="#4e5d78"/>
  <path id="Vector" d="M0,0H24V24H0Z" fill="none" opacity="0"/>
</svg>
