<svg id="send-2" xmlns="http://www.w3.org/2000/svg" width="24" height="24" viewBox="0 0 24 24">
  <path id="Union_42" data-name="Union 42" d="M15726.428,21008.367a10.808,10.808,0,0,1-1.745-3.447l-.722-2.168-2.168-.723c-3.959-1.318-4.792-2.988-4.792-4.164s.827-2.848,4.792-4.176l8.489-2.832a7.458,7.458,0,0,1,2.3-.412,3.524,3.524,0,0,1,3.006,1.377c.791,1.1.886,2.73.269,4.6l-2.831,8.494a10.807,10.807,0,0,1-1.751,3.447,2.854,2.854,0,0,1-4.846,0Zm-.321-3.922c.923,2.779,2.024,3.77,2.747,3.77s1.824-.99,2.747-3.77l2.832-8.494a3.7,3.7,0,0,0-.063-3.248,2.138,2.138,0,0,0-1.788-.754,5.786,5.786,0,0,0-1.818.332l-8.5,2.83c-2.778.93-3.77,2.031-3.77,2.754s.991,1.818,3.77,2.746l1.905.635a.573.573,0,0,1,.041-.043l3.58-3.592a.75.75,0,0,1,1.06,1.061l-3.5,3.514Z" transform="translate(-15714.633 -20988.08)" fill="#4e5d78"/>
  <path id="Vector" d="M0,0H24V24H0Z" fill="none" opacity="0"/>
</svg>
