<svg id="Send-message" xmlns="http://www.w3.org/2000/svg" width="34" height="34" viewBox="0 0 34 34">
  <path id="Path_7145" data-name="Path 7145" d="M17,0A17,17,0,1,1,0,17,17,17,0,0,1,17,0Z" fill="#377dff"/>
  <path id="Vector" d="M15.02,5.509,6.46,1.229C.71-1.651-1.65.709,1.23,6.459L2.1,8.2a1.822,1.822,0,0,1,0,1.61l-.87,1.73c-2.88,5.75-.53,8.11,5.23,5.23l8.56-4.28C18.86,10.569,18.86,7.429,15.02,5.509Zm-3.23,4.24H6.39a.75.75,0,0,1,0-1.5h5.4a.75.75,0,0,1,0,1.5Z" transform="translate(8.05 8.002)" fill="#fff"/>
</svg>
