<svg id="setting-4" xmlns="http://www.w3.org/2000/svg" width="24" height="24" viewBox="0 0 24 24">
  <path id="Union_59" data-name="Union 59" d="M16169.5,20795.7a4.249,4.249,0,0,1,8.433-.748h3.818a.75.75,0,0,1,0,1.5h-3.819a4.249,4.249,0,0,1-8.432-.752Zm1.5,0a2.751,2.751,0,1,0,2.751-2.746A2.752,2.752,0,0,0,16171,20795.7Zm-9.25.752a.75.75,0,0,1,0-1.5h6a.75.75,0,0,1,0,1.5Zm3.819-11h-3.819a.749.749,0,0,1,0-1.5h3.819a4.247,4.247,0,1,1,0,1.5Zm1.432-.752a2.751,2.751,0,1,0,2.751-2.75A2.752,2.752,0,0,0,16167,20784.7Zm8.749.752a.749.749,0,1,1,0-1.5h6a.749.749,0,0,1,0,1.5Z" transform="translate(-16159.75 -20778.197)" fill="#4e5d78"/>
  <path id="Vector" d="M0,0H24V24H0Z" fill="none" opacity="0"/>
</svg>
