<svg id="setting-2" xmlns="http://www.w3.org/2000/svg" width="24" height="24" viewBox="0 0 24 24">
  <path id="Union_58" data-name="Union 58" d="M16231.865,20799.631c0-.006,0-.006,0-.012l-.109-.187c-.293-.512-.653-.8-.992-.8s-.705.293-1,.8l-.11.188v.012a2.457,2.457,0,0,1-2.093,1.2,2.386,2.386,0,0,1-1.211-.33l-1.723-.986a2.658,2.658,0,0,1-.981-3.617,1.018,1.018,0,0,0-.987-1.729,2.654,2.654,0,0,1-2.651-2.646v-1.764a2.654,2.654,0,0,1,2.651-2.646,1.018,1.018,0,0,0,.992-1.723,2.649,2.649,0,0,1,.977-3.619l1.723-.986a2.352,2.352,0,0,1,1.211-.334,2.453,2.453,0,0,1,2.093,1.2v.01l.11.189c.3.512.657.8,1,.8s.7-.291,1-.8l.109-.189s0,0,0-.01a2.454,2.454,0,0,1,2.094-1.2,2.381,2.381,0,0,1,1.211.334l1.723.986a2.644,2.644,0,0,1,.977,3.613,1.33,1.33,0,0,0-.2,1.264,1.313,1.313,0,0,0,1.189.465,2.65,2.65,0,0,1,2.647,2.646v1.764a2.65,2.65,0,0,1-2.647,2.646,1.313,1.313,0,0,0-1.189.465,1.33,1.33,0,0,0,.2,1.264,2.654,2.654,0,0,1-.977,3.617l-1.723.986a2.416,2.416,0,0,1-1.211.33A2.459,2.459,0,0,1,16231.865,20799.631Zm1.186-.945.1.178a.94.94,0,0,0,.8.459.851.851,0,0,0,.449-.121s0,0,.01,0l1.729-.992a1.143,1.143,0,0,0,.537-.7,1.158,1.158,0,0,0-.114-.871,2.47,2.47,0,0,1,2.291-3.973,1.152,1.152,0,0,0,1.148-1.148v-1.764a1.151,1.151,0,0,0-1.148-1.148,2.47,2.47,0,0,1-2.291-3.973,1.159,1.159,0,0,0,.114-.873,1.139,1.139,0,0,0-.537-.693l-1.729-.992s-.01,0-.01-.006a.907.907,0,0,0-.449-.119.94.94,0,0,0-.8.459l-.1.184a2.474,2.474,0,0,1-4.594,0l-.1-.184a.927.927,0,0,0-.8-.459.89.89,0,0,0-.449.119.015.015,0,0,1-.011.006l-1.732.992a1.133,1.133,0,0,0-.533.693,1.158,1.158,0,0,0,.11.873,2.467,2.467,0,0,1-2.287,3.973,1.152,1.152,0,0,0-1.153,1.148v1.764a1.153,1.153,0,0,0,1.153,1.148,2.47,2.47,0,0,1,2.287,3.979,1.148,1.148,0,0,0,.423,1.561l1.732.992a.019.019,0,0,1,.011,0,.837.837,0,0,0,.449.121.927.927,0,0,0,.8-.459l.109-.184a2.471,2.471,0,0,1,4.589.006Zm-6.051-8.051a3.751,3.751,0,1,1,3.748,3.754A3.752,3.752,0,0,1,16227,20790.635Zm1.5,0a2.25,2.25,0,1,0,2.25-2.25A2.254,2.254,0,0,0,16228.5,20790.635Z" transform="translate(-16218.75 -20778.637)" fill="#4e5d78"/>
  <path id="Vector" d="M0,0H24V24H0Z" fill="none" opacity="0"/>
</svg>
