<svg id="vuesax_linear_shopping-bag" data-name="vuesax/linear/shopping-bag" xmlns="http://www.w3.org/2000/svg" width="24" height="24" viewBox="0 0 24 24">
  <g id="shopping-bag" transform="translate(-686 -188)">
    <path id="Union_17" data-name="Union 17" d="M16851.777,20713.947a4.213,4.213,0,0,1-4.711-5.312l.9-7.5a5.21,5.21,0,0,1,.955-2.887,3.821,3.821,0,0,1,2.6-1.238v-1.318a3.107,3.107,0,0,1,3.25-3.25h3a3.108,3.108,0,0,1,3.248,3.25v1.318a3.825,3.825,0,0,1,2.6,1.238,5.287,5.287,0,0,1,.967,2.887l.9,7.5a4.22,4.22,0,0,1-4.715,5.309Zm-2.324-12.633-.9,7.5a2.764,2.764,0,0,0,3.223,3.629h8.992a2.773,2.773,0,0,0,3.225-3.629l-.9-7.5c-.172-1.459-.295-2.5-2.074-2.789v.674a.751.751,0,0,1-1.5,0v-.754h-6.5v.754a.749.749,0,0,1-1.5,0v-.676C16849.74,20698.811,16849.621,20699.85,16849.453,20701.314Zm10.064-4.367v-1.252a1.619,1.619,0,0,0-1.746-1.746h-3a1.623,1.623,0,0,0-1.752,1.746v1.252Z" transform="translate(-16158.269 -20503.197)" fill="#4e5d78"/>
    <path id="Vector" d="M0,0H24V24H0Z" transform="translate(686 188)" fill="none" opacity="0"/>
  </g>
</svg>
