<svg xmlns="http://www.w3.org/2000/svg" width="24" height="24" viewBox="0 0 24 24">
  <g id="tick-square" transform="translate(-748 -252)">
    <path id="Vector" d="M2.83,6.41a.748.748,0,0,1-.53-.22L-.53,3.36A.75.75,0,0,1-.53,2.3.75.75,0,0,1,.53,2.3l2.3,2.3L7.97-.531a.75.75,0,0,1,1.061,0,.75.75,0,0,1,0,1.061L3.36,6.191A.748.748,0,0,1,2.83,6.41Z" transform="translate(755.75 261.17)" fill="#01b734"/>
    <path id="Vector-2" data-name="Vector" d="M0,0H24V24H0Z" transform="translate(748 252)" fill="none" opacity="0"/>
  </g>
</svg>
