<svg id="arrow-2" xmlns="http://www.w3.org/2000/svg" width="24" height="24" viewBox="0 0 24 24">
  <g id="arrow-2-2" data-name="arrow-2" transform="translate(-236 -188)">
    <g id="Group">
      <path id="Union_73" data-name="Union 73" d="M16296.941,21407.262l-3.723-3.719a.764.764,0,0,1-.119-.158.731.731,0,0,1-.1-.373.755.755,0,0,1,.144-.441l0-.006.008-.008a.693.693,0,0,1,.065-.078l3.723-3.717a.749.749,0,0,1,1.059,1.059l-2.439,2.439h16.188a.749.749,0,1,1,0,1.5h-16.192l2.444,2.445a.744.744,0,0,1,0,1.059.75.75,0,0,1-1.059,0Zm10.558-10.541a.753.753,0,0,1,0-1.059l2.438-2.439h-16.187a.752.752,0,0,1,0-1.5h16.188l-2.438-2.439a.75.75,0,0,1,1.063-1.059l3.718,3.719a.747.747,0,0,1,0,1.063l-3.718,3.719a.756.756,0,0,1-1.063,0Z" transform="translate(-16054.75 -21197.74)" fill="#4e5d78"/>
    </g>
    <path id="Vector" d="M0,0H24V24H0Z" transform="translate(236 188)" fill="none" opacity="0"/>
  </g>
</svg>
