<svg id="trash" xmlns="http://www.w3.org/2000/svg" width="24" height="24" viewBox="0 0 24 24">
  <path id="Union_35" data-name="Union 35" d="M16226.54,21011.949c-1.534,0-2.521-.354-3.095-1.1a4.255,4.255,0,0,1-.644-2.385l-.648-10.076a.75.75,0,1,1,1.5-.1l.648,10.066a3.209,3.209,0,0,0,.338,1.576c.259.344.9.512,1.9.512h6.418c1.007,0,1.646-.168,1.909-.512a3.2,3.2,0,0,0,.337-1.576l.649-10.066a.75.75,0,1,1,1.5.1l-.653,10.072a4.228,4.228,0,0,1-.644,2.389c-.575.748-1.556,1.1-3.1,1.1Zm1.54-5.5a.752.752,0,0,1,0-1.5h3.327a.752.752,0,1,1,0,1.5Zm-.828-4a.749.749,0,1,1,0-1.5h5a.749.749,0,1,1,0,1.5Zm-7.25-7.2a.753.753,0,0,1,.675-.816l2.04-.2c.929-.094,1.864-.164,2.8-.215l.212-1.283c.163-.965.385-2.283,2.71-2.283h2.621c2.336,0,2.563,1.383,2.711,2.295l.221,1.3a.263.263,0,0,1,0,.027c1.608.084,3.221.205,4.827.363a.75.75,0,1,1-.148,1.492c-3.321-.332-6.67-.5-9.945-.5-1.945,0-3.918.1-5.863.295l-2.041.2c-.026,0-.053,0-.074,0A.757.757,0,0,1,16220,20995.248Zm12.458-1.248-.172-1.008a1.875,1.875,0,0,0-.231-.812,1.471,1.471,0,0,0-1-.232h-2.621a1.508,1.508,0,0,0-1,.221,1.961,1.961,0,0,0-.232.813l-.165.973q.845-.023,1.684-.023Q16230.583,20993.93,16232.46,20994Z" transform="translate(-16217.75 -20989.197)" fill="#4e5d78"/>
  <path id="Vector" d="M0,0H24V24H0Z" fill="none" opacity="0"/>
</svg>
