<svg xmlns="http://www.w3.org/2000/svg" width="24" height="24" viewBox="0 0 24 24">
  <g id="undo" transform="translate(-108 -316)">
    <path id="Union_28" data-name="Union 28" d="M15861.012,21462.123a.752.752,0,1,1,0-1.5h8a4.249,4.249,0,1,0,0-8.5h-9.392l1.221,1.217a.753.753,0,0,1,0,1.061.749.749,0,0,1-1.062,0l-2.559-2.559a.755.755,0,0,1,0-1.061l2.559-2.559a.75.75,0,0,1,1.062,1.061l-1.342,1.342h9.513a5.75,5.75,0,0,1,0,11.5Z" transform="translate(-15745.88 -21127.061)" fill="#4e5d78"/>
    <path id="Vector" d="M0,0H24V24H0Z" transform="translate(132 340) rotate(180)" fill="none" opacity="0"/>
  </g>
</svg>
