<svg xmlns="http://www.w3.org/2000/svg" width="43.804" height="32.853" viewBox="0 0 43.804 32.853">
  <path id="_1._Upload" data-name="1. Upload" d="M20.611.535a1.825,1.825,0,0,1,2.581,0L28.668,6.01a1.825,1.825,0,0,1-2.581,2.581l-2.36-2.36V20.077a1.825,1.825,0,0,1-3.65,0V6.231l-2.36,2.36A1.825,1.825,0,0,1,15.136,6.01ZM1.825,18.252A1.825,1.825,0,0,1,3.65,20.077v7.3A1.825,1.825,0,0,0,5.475,29.2H38.328a1.825,1.825,0,0,0,1.825-1.825v-7.3a1.825,1.825,0,1,1,3.65,0v7.3a5.475,5.475,0,0,1-5.475,5.475H5.475A5.475,5.475,0,0,1,0,27.377v-7.3A1.825,1.825,0,0,1,1.825,18.252Z" fill="#377dff"/>
</svg>
