<svg id="user" xmlns="http://www.w3.org/2000/svg" width="52" height="52" viewBox="0 0 52 52">
  <path id="Union_95" data-name="Union 95" d="M37.233,44.952c0-7.468-7.63-13.534-16.994-13.534S3.26,37.484,3.26,44.952a1.63,1.63,0,1,1-3.26,0A15.392,15.392,0,0,1,6.058,32.964a22.427,22.427,0,0,1,14.181-4.8,22.437,22.437,0,0,1,14.183,4.8,15.4,15.4,0,0,1,6.058,11.988,1.624,1.624,0,1,1-3.248,0ZM7.78,12.459A12.46,12.46,0,1,1,20.239,24.905,12.472,12.472,0,0,1,7.78,12.459Zm3.248,0a9.212,9.212,0,1,0,9.211-9.216A9.223,9.223,0,0,0,11.028,12.459Z" transform="translate(5.759 2.713)" fill="#a9bcd1"/>
  <path id="Vector" d="M0,0H52V52H0Z" fill="none" opacity="0"/>
</svg>
