<svg id="volume-cross" xmlns="http://www.w3.org/2000/svg" width="24" height="24" viewBox="0 0 24 24">
  <path id="Union_44" data-name="Union 44" d="M16228.762,20447.8l-2.91-1.822a1.369,1.369,0,0,0-.672-.2h-1.432a3.378,3.378,0,0,1-3.747-3.746v-4a3.382,3.382,0,0,1,3.747-3.752h1.432a1.361,1.361,0,0,0,.672-.189l2.91-1.822a4.8,4.8,0,0,1,2.535-.826,2.926,2.926,0,0,1,2.366,1.139,4.609,4.609,0,0,1,.836,2.863v9.176a4.6,4.6,0,0,1-.842,2.859,2.922,2.922,0,0,1-2.365,1.145A4.787,4.787,0,0,1,16228.762,20447.8Zm-7.262-9.766v4c0,1.576.672,2.248,2.248,2.248h1.432a2.826,2.826,0,0,1,1.442.4l.015.012,2.92,1.826a3.388,3.388,0,0,0,1.735.6c1.072,0,1.709-.934,1.709-2.5v-9.176c0-1.57-.637-2.5-1.7-2.5a3.421,3.421,0,0,0-1.74.6l-2.935,1.842a2.867,2.867,0,0,1-1.442.406h-1.432C16222.172,20435.791,16221.5,20436.463,16221.5,20438.039Zm14.719,4.531a.752.752,0,0,1,0-1.062l1.489-1.49-1.448-1.445a.751.751,0,0,1,1.062-1.062l1.447,1.447,1.412-1.412a.762.762,0,0,1,1.062,0,.752.752,0,0,1,0,1.063l-1.411,1.412,1.447,1.447a.752.752,0,0,1,0,1.063.726.726,0,0,1-.528.221.734.734,0,0,1-.528-.221l-1.451-1.449-1.49,1.49a.749.749,0,0,1-1.062,0Z" transform="translate(-16218.75 -20427.879)" fill="#4e5d78"/>
  <path id="Vector" d="M0,0H24V24H0Z" fill="none" opacity="0"/>
</svg>
