<svg id="wallet-2" xmlns="http://www.w3.org/2000/svg" width="24" height="24" viewBox="0 0 24 24">
  <path id="Union_18" data-name="Union 18" d="M16225.749,21218.949a5.473,5.473,0,0,1-5.751-5.752v-7a5.407,5.407,0,0,1,4.835-5.687,6.711,6.711,0,0,1,.916-.062h9a5.592,5.592,0,0,1,.857.053,5.4,5.4,0,0,1,4.894,5.7v.875a1.761,1.761,0,0,1,1,1.592v2.061a1.761,1.761,0,0,1-1,1.592v.879a5.473,5.473,0,0,1-5.751,5.752Zm-.7-16.951a.018.018,0,0,0-.016.006,3.918,3.918,0,0,0-3.536,4.2v7a3.982,3.982,0,0,0,4.249,4.25h9a3.982,3.982,0,0,0,4.25-4.25v-.7h-1.209a2.885,2.885,0,0,1-2.908-2.557c-.007-.078-.011-.156-.011-.232a2.811,2.811,0,0,1,2.8-2.814H16239v-.7a3.925,3.925,0,0,0-3.584-4.207c-.017,0-.027,0-.037,0a3.791,3.791,0,0,0-.629-.043h-9A5.045,5.045,0,0,0,16225.052,21202Zm12.738,9h1.943a.28.28,0,0,0,.267-.271v-2.061a.272.272,0,0,0-.267-.268h-2.066a1.229,1.229,0,0,0-.9.373c-.006.006-.011.006-.017.012a1.273,1.273,0,0,0-.378.881,1.129,1.129,0,0,0,.006.141v.012A1.389,1.389,0,0,0,16237.79,21211Zm-12.041-3.553a.748.748,0,1,1,0-1.5h6a.748.748,0,1,1,0,1.5Z" transform="translate(-16218.75 -21197.697)" fill="#4e5d78"/>
  <path id="Vector" d="M0,0H24V24H0Z" transform="translate(24 24) rotate(180)" fill="none" opacity="0"/>
</svg>
