<svg xmlns="http://www.w3.org/2000/svg" xmlns:xlink="http://www.w3.org/1999/xlink" width="186.509" height="46.103" viewBox="0 0 186.509 46.103">
  <defs>
    <clipPath id="clip-path">
      <rect id="Rectangle_3333" data-name="Rectangle 3333" width="140.422" height="28.734" transform="translate(47.832 7.105)" fill="none"/>
    </clipPath>
    <clipPath id="clip-path-3">
      <rect id="Rectangle_3335" data-name="Rectangle 3335" width="46.103" height="46.103" transform="translate(1.745 1.932)" fill="none"/>
    </clipPath>
  </defs>
  <g id="logo_orimatla_color_h" transform="translate(93.255 23.051)">
    <g id="Group_5297" data-name="Group 5297" transform="translate(-93.255 -23.051)">
      <g id="Group_5292" data-name="Group 5292" transform="translate(-1.745 -1.932)">
        <g id="name_orimatla_black">
          <g id="Group_5291" data-name="Group 5291">
            <g id="Group_5290" data-name="Group 5290" clip-path="url(#clip-path)">
              <g id="Group_5289" data-name="Group 5289">
                <g id="Group_5288" data-name="Group 5288" clip-path="url(#clip-path)">
                  <path id="Path_7222" data-name="Path 7222" d="M51.622,24.885a9.571,9.571,0,0,1,19.142,0,9.571,9.571,0,1,1-19.142,0m15.133,0a5.571,5.571,0,1,0-11.124,0,5.571,5.571,0,1,0,11.124,0" fill="#323b4b"/>
                  <path id="Path_7223" data-name="Path 7223" d="M73.908,23.766c0-5.129,3.431-8.451,8.126-8.451a1.827,1.827,0,0,1,1.842,1.842A1.85,1.85,0,0,1,82.034,19c-2.384,0-4.154,1.589-4.154,4.767V32.4a1.986,1.986,0,1,1-3.972,0Z" fill="#323b4b"/>
                  <path id="Path_7224" data-name="Path 7224" d="M85.646,10.909a2.347,2.347,0,1,1,2.348,2.347,2.343,2.343,0,0,1-2.348-2.347m.361,6.428a1.986,1.986,0,0,1,3.973,0V32.4a1.987,1.987,0,1,1-3.973,0Z" fill="#323b4b"/>
                  <path id="Path_7225" data-name="Path 7225" d="M93.881,22.574c0-4.514,3.034-7.259,6.862-7.259a5.729,5.729,0,0,1,5.237,2.672,5.668,5.668,0,0,1,5.2-2.672c3.829,0,6.862,2.745,6.862,7.259V32.4a1.986,1.986,0,1,1-3.972,0V22.538c0-2.384-1.337-3.539-3.07-3.539-1.7,0-3.034,1.155-3.034,3.539V32.4a2.012,2.012,0,0,1-1.986,2.023,1.989,1.989,0,0,1-1.987-2.023V22.538c0-2.384-1.373-3.539-3.069-3.539s-3.07,1.155-3.07,3.539V32.4a1.987,1.987,0,1,1-3.973,0Z" fill="#323b4b"/>
                  <path id="Path_7226" data-name="Path 7226" d="M136.319,32.217a8.977,8.977,0,0,1-5.995,2.239c-5.2,0-9.138-4.225-9.138-9.571a9.227,9.227,0,0,1,9.138-9.57,8.831,8.831,0,0,1,5.995,2.275v-.253a1.987,1.987,0,0,1,3.973,0V32.4a1.987,1.987,0,1,1-3.973,0ZM130.757,19a5.643,5.643,0,0,0-5.562,5.886,5.571,5.571,0,1,0,11.124,0A5.654,5.654,0,0,0,130.757,19" fill="#323b4b"/>
                  <path id="Path_7227" data-name="Path 7227" d="M180.491,32.217a8.973,8.973,0,0,1-5.995,2.239c-5.2,0-9.137-4.225-9.137-9.571a9.227,9.227,0,0,1,9.137-9.57,8.827,8.827,0,0,1,5.995,2.275v-.253a1.987,1.987,0,0,1,3.973,0V32.4a1.987,1.987,0,1,1-3.973,0ZM174.93,19a5.643,5.643,0,0,0-5.562,5.886,5.571,5.571,0,1,0,11.123,0A5.653,5.653,0,0,0,174.93,19" fill="#323b4b"/>
                  <path id="Path_7228" data-name="Path 7228" d="M142.352,17.518a1.826,1.826,0,0,1,1.842-1.842h1.3V12.967a1.987,1.987,0,0,1,3.974,0v2.709h4.225a1.827,1.827,0,0,1,1.842,1.842,1.85,1.85,0,0,1-1.842,1.842h-4.225V25.9c0,3.178,1.769,4.8,4.225,4.8a1.86,1.86,0,0,1,0,3.72c-4.658,0-8.2-3.287-8.2-8.523V19.36h-1.3a1.849,1.849,0,0,1-1.842-1.842" fill="#323b4b"/>
                  <path id="Path_7229" data-name="Path 7229" d="M158.244,10.475a1.986,1.986,0,1,1,3.972,0V32.4a1.986,1.986,0,1,1-3.972,0Z" fill="#323b4b"/>
                </g>
              </g>
            </g>
          </g>
        </g>
      </g>
      <g id="ico_orimatla_color" transform="translate(-1.745 -1.932)">
        <g id="Group_5296" data-name="Group 5296">
          <g id="Group_5295" data-name="Group 5295" clip-path="url(#clip-path-3)">
            <g id="Group_5294" data-name="Group 5294">
              <g id="Group_5293" data-name="Group 5293" clip-path="url(#clip-path-3)">
                <path id="Path_7230" data-name="Path 7230" d="M41.451,29.313c-3-1.177-9.877-2.97-12.278-2.97a3.015,3.015,0,0,0-3.016,3.016c0,2.4,1.792,9.277,2.968,12.279a4.025,4.025,0,0,0,5.215,2.276,18.264,18.264,0,0,0,5.5-3.888,18.241,18.241,0,0,0,3.888-5.5,4.024,4.024,0,0,0-2.277-5.214" fill="#377dff"/>
                <path id="Path_7231" data-name="Path 7231" d="M41.451,20.613c-3,1.177-9.877,2.969-12.278,2.969a3.015,3.015,0,0,1-3.016-3.015c0-2.4,1.792-9.277,2.968-12.279A4.024,4.024,0,0,1,34.34,6.012,18.211,18.211,0,0,1,39.84,9.9a18.241,18.241,0,0,1,3.888,5.5,4.024,4.024,0,0,1-2.277,5.214" fill="#ff1d5e"/>
                <path id="Path_7232" data-name="Path 7232" d="M8.141,29.313c3-1.177,9.878-2.97,12.279-2.97a3.015,3.015,0,0,1,3.016,3.016c0,2.4-1.792,9.277-2.968,12.279a4.025,4.025,0,0,1-5.215,2.276,18.264,18.264,0,0,1-5.5-3.888,18.241,18.241,0,0,1-3.888-5.5,4.025,4.025,0,0,1,2.276-5.214" fill="#00b734"/>
                <path id="Path_7233" data-name="Path 7233" d="M8.141,20.613c3,1.177,9.878,2.969,12.279,2.969a3.015,3.015,0,0,0,3.016-3.015c0-2.4-1.792-9.277-2.968-12.279a4.024,4.024,0,0,0-5.215-2.276A18.211,18.211,0,0,0,9.753,9.9a18.241,18.241,0,0,0-3.888,5.5,4.025,4.025,0,0,0,2.276,5.214" fill="#ffb522"/>
              </g>
            </g>
          </g>
        </g>
      </g>
    </g>
  </g>
</svg>
